<svg width="506" height="198" viewBox="0 0 506 198" fill="none" xmlns="http://www.w3.org/2000/svg">
<path d="M296.517 0L136.945 9.15565V74.327H298.309L369.172 29.3368V0H296.51H296.517ZM189.264 36.1999C189.264 36.594 189.066 36.9522 188.728 37.1599L151.347 60.8944C150.568 61.3887 149.518 60.8371 149.518 59.9344V22.4879C149.518 21.8503 150.047 21.3345 150.701 21.3345H188.097C188.75 21.3345 189.279 21.8503 189.279 22.4879V36.1999H189.272H189.264ZM237.5 36.2501C237.5 36.6298 237.302 37.0023 236.964 37.2101L199.568 60.9589C198.79 61.4532 197.739 60.9016 197.739 59.9989V22.5238C197.739 21.8862 198.268 21.3704 198.922 21.3704H236.318C236.971 21.3704 237.5 21.8862 237.5 22.5238V36.2429V36.2501ZM285.736 36.2501C285.736 36.6298 285.538 37.0023 285.2 37.2101L247.804 60.9589C247.026 61.4532 245.975 60.9016 245.975 59.9989V22.5238C245.975 21.8862 246.504 21.3704 247.158 21.3704H284.554C285.207 21.3704 285.736 21.8862 285.736 22.5238V36.2429V36.2501Z" fill="white"/>
<path d="M270.879 170.97V197.219H260.891V134.154H270.879V170.97Z" fill="white"/>
<path d="M270.879 164.3C270.879 156.291 277.437 149.571 285.67 149.507H285.861C296.635 149.507 305.051 156.413 305.051 169.537V197.233H295.151V170.984C295.151 162.373 290.334 157.946 283.063 157.946C275.792 157.946 270.887 162.38 270.887 170.984V164.3H270.879Z" fill="white"/>
<path d="M396.529 158.189C402.096 158.189 406.605 162.574 406.605 167.99V184.181C406.605 187.677 408.008 189.124 412.209 189.124H418.341V197.219H410.453C401.868 197.219 396.522 193.723 396.522 184.181V158.189H396.529Z" fill="white"/>
<path d="M396.529 158.189H390.837V150.266H396.529V138.588H406.605V150.266H418.348V158.189H396.536H396.529Z" fill="white"/>
<path d="M505.802 149.5H506V159.558H503.459C496.1 159.558 491.547 162.538 491.547 172.51V163.756C491.547 156.033 497.855 149.557 505.802 149.5Z" fill="white"/>
<path d="M491.561 172.51V197.226H481.573V150.266H491.561V172.51Z" fill="white"/>
<path d="M123.696 158.189C129.263 158.189 133.772 162.574 133.772 167.99V184.181C133.772 187.677 135.175 189.124 139.376 189.124H145.508V197.219H137.621C129.035 197.219 123.689 193.723 123.689 184.181V158.189H123.696Z" fill="white"/>
<path d="M123.696 158.189H118.005V150.266H123.696V138.588H133.772V150.266H145.516V158.189H123.704H123.696Z" fill="white"/>
<path d="M22.8621 149.499C29.1707 149.499 35.8244 152.394 39.5038 156.828V134.161H49.5799V197.241H39.5038V190.17C36.434 194.432 30.6542 198.007 22.774 198.007C10.0687 198.007 0 188.035 0 173.535C0 159.035 10.0761 149.499 22.8621 149.499ZM24.8744 157.939C17.4275 157.939 10.245 163.39 10.245 173.535C10.245 183.679 17.4275 189.554 24.8744 189.554C32.3213 189.554 39.5038 183.844 39.5038 173.7C39.5038 163.555 32.4094 157.931 24.8744 157.931V157.939Z" fill="white"/>
<path d="M82.1729 149.5C90.3175 149.5 95.9284 153.253 98.9028 157.086V150.266H108.979V197.226H98.9028V190.241C95.8329 194.246 90.0531 197.993 81.9967 197.993C69.4677 197.993 59.3916 188.021 59.3916 173.535C59.3916 159.049 69.4677 149.5 82.1656 149.5H82.1729ZM84.2734 157.939C76.8265 157.939 69.6439 163.391 69.6439 173.535C69.6439 183.679 76.8265 189.554 84.2734 189.554C91.7203 189.554 98.9028 183.844 98.9028 173.7C98.9028 163.555 91.8084 157.932 84.2734 157.932V157.939Z" fill="white"/>
<path d="M174.158 149.5C182.302 149.5 187.913 153.253 190.887 157.086V150.266H200.963V197.226H190.887V190.241C187.818 194.246 182.038 197.993 173.981 197.993C161.452 197.993 151.376 188.021 151.376 173.535C151.376 159.049 161.452 149.5 174.15 149.5H174.158ZM176.258 157.939C168.811 157.939 161.629 163.391 161.629 173.535C161.629 183.679 168.811 189.554 176.258 189.554C183.705 189.554 190.887 183.844 190.887 173.7C190.887 163.555 183.793 157.932 176.258 157.932V157.939Z" fill="white"/>
<path d="M231.632 198C220.065 198 211.921 191.352 211.48 182.826H221.821C222.173 186.659 225.941 189.819 231.456 189.819C236.972 189.819 240.306 187.433 240.306 184.195C240.306 174.989 212.273 180.276 212.273 163.061C212.273 155.56 219.456 149.514 230.847 149.514C242.237 149.514 248.979 155.223 249.508 164.601H239.52C239.167 160.51 235.929 157.695 230.494 157.695C225.059 157.695 222.349 159.823 222.349 162.982C222.349 172.439 249.596 167.159 250.117 184.116C250.117 192.039 243.023 198.007 231.632 198.007V198Z" fill="white"/>
<path d="M338.511 198C324.667 198 314.422 188.458 314.422 173.714C314.422 158.97 324.234 149.507 338.511 149.507C352.788 149.507 361.99 158.798 361.99 172.603C361.99 174.223 361.902 175.756 361.637 177.375H324.755C325.461 185.126 331.152 189.819 338.511 189.819C344.643 189.819 348.058 186.924 349.902 183.256H360.675C357.958 191.438 350.335 198 338.511 198ZM324.844 169.537H351.561C351.385 162.294 345.517 157.695 338.07 157.695C331.321 157.695 325.894 162.13 324.844 169.537Z" fill="white"/>
<path d="M371.802 134.154H381.789V197.234H371.802V134.154Z" fill="white"/>
<path d="M448.283 198C434.439 198 424.187 188.458 424.187 173.714C424.187 158.97 433.999 149.507 448.283 149.507C462.567 149.507 471.762 158.798 471.762 172.603C471.762 174.223 471.674 175.756 471.409 177.375H434.527C435.225 185.126 440.924 189.819 448.283 189.819C454.415 189.819 457.83 186.924 459.674 183.256H470.447C467.73 191.438 460.107 198 448.283 198ZM434.616 169.537H461.333C461.157 162.294 455.289 157.695 447.842 157.695C441.1 157.695 435.666 162.13 434.616 169.537Z" fill="white"/>
</svg>
